PathFileType	4	(X/Y/Z)	C:/Users/opensim2020/Desktop/walking_exp_matlab/subject02_walking13_straight_02.trc																																																																																																																									
DataRate	CameraRate	NumFrames	NumMarkers	Units	OrigDataRate	OrigDataStartFrame	OrigNumFrames																																																																																																																					
100	100	5	41	mm	100	897	125																																																																																																																					
Frame#	Time	LFHD			RFHD			LBHD			RBHD			C7			T10			CLAV			STRN			RBAK			LSHO			LUPA			LELB			LFRM			LWRA			LWRB			LFIN			RSHO			RUPA			RELB			RFRM			RWRA			RWRB			RFIN			LASI			RASI			LPSI			RPSI			LTHI			LKNE			LTIB			LANK			LHEE			LTOE			RTHI			RKNE			RTIB			RANK			RHEE			RTOE			*39			*40		
		X1	Y1	Z1	X2	Y2	Z2	X3	Y3	Z3	X4	Y4	Z4	X5	Y5	Z5	X6	Y6	Z6	X7	Y7	Z7	X8	Y8	Z8	X9	Y9	Z9	X10	Y10	Z10	X11	Y11	Z11	X12	Y12	Z12	X13	Y13	Z13	X14	Y14	Z14	X15	Y15	Z15	X16	Y16	Z16	X17	Y17	Z17	X18	Y18	Z18	X19	Y19	Z19	X20	Y20	Z20	X21	Y21	Z21	X22	Y22	Z22	X23	Y23	Z23	X24	Y24	Z24	X25	Y25	Z25	X26	Y26	Z26	X27	Y27	Z27	X28	Y28	Z28	X29	Y29	Z29	X30	Y30	Z30	X31	Y31	Z31	X32	Y32	Z32	X33	Y33	Z33	X34	Y34	Z34	X35	Y35	Z35	X36	Y36	Z36	X37	Y37	Z37	X38	Y38	Z38	X39	Y39	Z39	X40	Y40	Z40	X41	Y41	Z41
																																																																																																																												
32	0.31	-540.06738	1703.86963	-1451.44946	-561.07587	1681.32971	-1310.60925	-674.97394	1643.11621	-1479.36145	-708.00507	1620.61133	-1341.21851	-752.12408	1498.76428	-1408.39026	-800.94995	1218.74182	-1404.82117	-613.52563	1429.08167	-1420.72961	-559.10645	1259.41809	-1419.65662	-809.20245	1316.60425	-1351.22595	-687.97961	1478.22791	-1585.28552	-668.33496	1307.14075	-1705.53284	-622.49408	1185.68994	-1766.98169	-514.94098	1110.57532	-1801.53625	-381.16321	1085.23621	-1793.70703	-412.69241	1046.46948	-1820.30786	-352.51392	1035.08484	-1841.573	-682.13977	1454.85522	-1223.2854	-749.11444	1276.6499	-1144.5354	-766.24768	1130.74597	-1126.49719	-759.66888	1009.0127	-1113.53674	-735.43481	876.88879	-1141.03149	-780.3678	880.495	-1105.7981	-757.04779	810.94067	-1110.31384	-601.70337	952.63953	-1567.14783	-558.77783	948.69147	-1319.73938	-790.52307	1007.11255	-1454.78198	-777.94861	1009.49017	-1338.05701	-752.84558	660.08533	-1614.74548	-828.49017	479.401	-1590.88379	-982.91626	366.04956	-1569.65271	-1110.78455	183.15681	-1536.45361	-1137.10413	187.60085	-1477.44275	-1046.48303	38.2493	-1547.96326	-554.19421	653.97601	-1250.34167	-487.35431	465.32883	-1316.86707	-491.60126	276.81277	-1324.39465	-491.63315	88.17442	-1377.7406	-523.61975	38.94526	-1439.30566	-339.93106	43.77399	-1369.16125	-645.86176	1777.02307	-1372.20129	-2845.76025	1034.30212	3357.05469
33	0.32	-527.24854	1705.21643	-1451.53308	-548.34686	1682.55688	-1310.31628	-662.08795	1644.02295	-1479.37061	-695.2149	1621.62927	-1341.18555	-738.9682	1499.7124	-1408.55457	-787.17047	1219.49475	-1405.48999	-600.19165	1430.31213	-1420.88818	-545.16199	1260.95313	-1419.73853	-795.78308	1317.42505	-1351.75598	-674.67688	1479.70935	-1585.52087	-657.75031	1307.48169	-1705.04395	-613.5235	1184.77698	-1765.42517	-506.10425	1108.99475	-1799.19495	-372.5361	1082.70581	-1789.63892	-403.84653	1044.33472	-1816.91895	-343.28763	1032.63904	-1837.16699	-669.27179	1456.18982	-1223.86731	-734.07153	1277.32629	-1144.61218	-750.55731	1131.27905	-1126.94592	-743.80511	1009.80365	-1113.448	-719.51459	877.35571	-1140.1864	-764.95441	881.17841	-1105.32715	-741.23926	811.49347	-1109.57617	-586.11841	953.05157	-1564.34326	-544.23596	950.65765	-1318.71423	-775.60175	1007.99139	-1456.18921	-763.57147	1011.29889	-1338.5564	-732.10626	657.6709	-1615.64868	-803.54712	476.60184	-1593.59082	-959.28674	366.92938	-1572.03394	-1092.10718	189.49873	-1538.53113	-1117.33264	196.58487	-1478.17859	-1039.01489	40.94865	-1549.18921	-540.08905	654.94	-1251.51001	-476.57608	464.86993	-1317.82458	-486.90897	276.44223	-1325.42297	-490.11664	88.1069	-1378.74182	-523.27649	39.26289	-1439.47498	-338.81897	42.51944	-1370.16956	-633.24811	1777.96252	-1372.2489	-2845.89087	1034.14832	3357.02563
34	0.33	-514.61194	1706.56921	-1451.24084	-535.82477	1684.12732	-1310.21252	-649.14136	1645.07825	-1479.51099	-682.39252	1622.67932	-1341.37207	-726.14307	1500.53748	-1408.67859	-773.39709	1220.41724	-1405.74805	-587.00726	1431.59485	-1421.2793	-531.5105	1262.28784	-1419.78137	-781.91034	1318.27991	-1352.02661	-661.28033	1481.0697	-1585.35583	-646.9516	1307.68982	-1704.08472	-604.82031	1183.99902	-1763.74548	-497.81931	1107.1062	-1796.51086	-364.65796	1079.4856	-1785.38586	-395.91528	1041.79028	-1813.58215	-334.74399	1029.28186	-1832.38867	-655.85919	1457.27869	-1224.09167	-719.52356	1278.05591	-1144.83484	-734.71906	1131.96155	-1127.29053	-727.57867	1010.66956	-1113.58167	-702.57062	877.74347	-1139.34692	-748.01593	881.95715	-1104.83875	-724.70697	812.11157	-1108.8667	-570.90961	953.54163	-1561.9668	-530.29565	952.72101	-1317.51282	-761.26465	1009.01538	-1457.27258	-749.59753	1012.80328	-1339.16345	-710.80676	654.77155	-1616.49683	-777.83179	473.64438	-1596.29504	-934.89557	367.27084	-1574.96802	-1073.65906	196.67883	-1539.28308	-1096.97583	204.86168	-1478.04675	-1027.27502	46.02286	-1553.66907	-526.09772	656.70953	-1252.96057	-466.83975	464.44504	-1318.4696	-483.61057	276.09277	-1326.42285	-489.02469	88.53029	-1379.18896	-523.04608	39.42503	-1439.56836	-338.22888	41.93521	-1370.31396	-621.08942	1779.1615	-1372.40405	-2845.98926	1034.20544	3357.04443
35	0.34	-501.80508	1708.36902	-1450.87988	-523.41125	1685.91956	-1310.10828	-636.2124	1646.52112	-1479.71606	-669.67938	1623.89526	-1341.57361	-713.53876	1501.60291	-1409.03955	-759.73199	1221.72217	-1405.88733	-573.88037	1433.13623	-1421.81226	-518.41199	1264.06567	-1420.52551	-768.41144	1319.45813	-1352.57605	-648.55121	1482.76184	-1585.86548	-636.47266	1308.22656	-1703.67212	-596.20245	1183.07031	-1761.73376	-489.9931	1104.86719	-1793.77612	-357.32452	1075.54956	-1780.93567	-388.45453	1038.35974	-1809.87964	-327.11761	1025.16614	-1827.65259	-642.6712	1458.74963	-1224.57227	-704.61511	1278.81116	-1145.0249	-718.51031	1132.57703	-1127.67139	-710.63849	1011.37573	-1113.3302	-685.49829	878.78668	-1139.0437	-730.51941	882.6438	-1104.2019	-707.27045	812.93994	-1108.20813	-556.14801	953.94086	-1559.81897	-516.94073	954.72101	-1316.05298	-747.35266	1010.21625	-1458.00879	-736.17725	1014.23431	-1339.82825	-688.75812	651.69189	-1617.17139	-751.74005	471.10132	-1599.24121	-910.24542	367.99368	-1578.10583	-1053.97559	203.82152	-1538.16858	-1075.05444	211.13264	-1476.67542	-1011.01556	52.36768	-1560.75513	-512.45642	658.03052	-1252.80774	-459.45294	463.90753	-1319.37781	-480.53418	276.01059	-1327.39636	-488.47318	88.71059	-1379.81982	-523.08673	39.6804	-1439.73071	-337.74045	41.58445	-1370.86389	-609.06702	1780.60681	-1372.61072	-2845.87842	1034.34094	3356.90625
36	0.35	-489.07712	1710.53906	-1450.68347	-511.05661	1687.83838	-1310.00464	-623.21948	1648.34082	-1480.02148	-657.07269	1625.50366	-1342.02979	-700.92859	1503.09888	-1409.46655	-746.35944	1223.39209	-1405.95032	-561.15283	1434.96228	-1422.48035	-505.28549	1265.74036	-1421.14404	-755.50476	1321.09705	-1353.36511	-636.06232	1484.51221	-1586.44934	-626.07855	1308.57886	-1703.05054	-588.03003	1182.49268	-1760.0592	-482.61789	1102.38306	-1790.9624	-350.32373	1070.76782	-1776.20654	-381.65985	1034.4071	-1806.20667	-320.07953	1020.19281	-1822.724	-629.53326	1460.26563	-1225.11121	-689.20111	1279.84839	-1145.45496	-702.18738	1133.41321	-1127.85303	-693.8056	1012.43872	-1113.55652	-667.7984	879.82111	-1138.64478	-713.11017	883.63507	-1103.75867	-689.09869	813.9895	-1107.54529	-541.85236	954.40143	-1558.11328	-503.96762	956.73834	-1314.66394	-733.9389	1011.81964	-1458.5033	-723.27173	1015.71893	-1340.32996	-666.33618	649.91388	-1618.24585	-725.43542	469.06183	-1601.9502	-885.23975	370.02957	-1580.53467	-1031.72339	210.41916	-1536.6853	-1052.15918	215.42082	-1474.65503	-991.28967	59.82976	-1567.97827	-500.03873	659.56372	-1252.70007	-453.33655	463.52319	-1319.54675	-477.0155	276.08096	-1327.79065	-487.8277	89.07063	-1380.21204	-522.9422	39.61913	-1439.79248	-337.30621	41.3098	-1371.33386	-596.89325	1782.36816	-1372.74561	-2845.8562	1034.27856	3356.80347
